<svg width="21" height="19" viewBox="0 0 21 19" fill="none" xmlns="http://www.w3.org/2000/svg">
<path d="M7.4748 11.1875C7.74334 11.1875 8.00087 11.0808 8.19075 10.891C8.38063 10.7011 8.4873 10.4435 8.4873 10.175C8.4873 9.90647 8.38063 9.64894 8.19075 9.45906C8.00087 9.26918 7.74334 9.16251 7.4748 9.16251C7.20627 9.16251 6.94874 9.26918 6.75886 9.45906C6.56898 9.64894 6.4623 9.90647 6.4623 10.175C6.4623 10.4435 6.56898 10.7011 6.75886 10.891C6.94874 11.0808 7.20627 11.1875 7.4748 11.1875ZM10.8498 0.725006C10.8498 0.62771 10.8287 0.531573 10.788 0.44318C10.7474 0.354788 10.6881 0.27623 10.6142 0.21289C10.5404 0.14955 10.4537 0.102924 10.3602 0.076208C10.2666 0.0494919 10.1684 0.0433167 10.0722 0.0581057L0.622205 1.50261C0.462881 1.52711 0.317586 1.60782 0.212599 1.73014C0.107612 1.85246 0.049866 2.00831 0.0498047 2.16951V16.8305C0.049866 16.9917 0.107612 17.1476 0.212599 17.2699C0.317586 17.3922 0.462881 17.4729 0.622205 17.4974L10.0722 18.9433C10.1684 18.958 10.2666 18.9519 10.3602 18.9252C10.4537 18.8984 10.5404 18.8518 10.6142 18.7885C10.6881 18.7251 10.7474 18.6466 10.788 18.5582C10.8287 18.4698 10.8498 18.3737 10.8498 18.2764V9.50001H17.832L16.4861 10.6799C16.3594 10.7998 16.284 10.9641 16.2758 11.1384C16.2676 11.3127 16.3272 11.4833 16.4421 11.6146C16.557 11.7459 16.7182 11.8276 16.892 11.8426C17.0658 11.8576 17.2387 11.8048 17.3744 11.6951L20.069 9.33261C20.1412 9.26925 20.1991 9.1912 20.2388 9.10366C20.2785 9.01612 20.299 8.92112 20.299 8.82501C20.299 8.7289 20.2785 8.63389 20.2388 8.54635C20.1991 8.45882 20.1412 8.38076 20.069 8.3174L17.3744 5.95491C17.2397 5.83711 17.0638 5.77762 16.8853 5.78952C16.7069 5.80142 16.5404 5.88373 16.4226 6.01836C16.3048 6.15298 16.2453 6.32888 16.2572 6.50737C16.2691 6.68586 16.3514 6.85231 16.4861 6.97011L17.832 8.15001H10.8498V0.725006ZM9.4998 1.51071V17.492L1.3998 16.25V2.74866L9.4998 1.51071ZM12.8748 17.6H12.1998V10.85H13.5498V16.925C13.5498 17.104 13.4787 17.2757 13.3521 17.4023C13.2255 17.5289 13.0538 17.6 12.8748 17.6ZM12.1998 6.80001V1.40001H12.8748C13.0538 1.40001 13.2255 1.47112 13.3521 1.59771C13.4787 1.7243 13.5498 1.89598 13.5498 2.07501V6.80001H12.1998Z" fill="#212121"/>
</svg>
