<svg width="7" height="10" viewBox="0 0 7 10" fill="none" xmlns="http://www.w3.org/2000/svg">
<path d="M0.0834112 9.50002L0.0834112 0.500018C0.0836496 0.408897 0.104592 0.31958 0.143986 0.24168C0.183379 0.16378 0.23973 0.100247 0.306975 0.0579205C0.37422 0.0155935 0.449811 -0.00392437 0.525613 0.00146675C0.601414 0.00685787 0.674554 0.0369549 0.737162 0.0885181L6.15383 4.58852C6.37841 4.77502 6.37841 5.22402 6.15383 5.41102L0.737162 9.91102C0.674685 9.96311 0.601508 9.99365 0.52558 9.99934C0.449653 10.005 0.373879 9.98563 0.306492 9.94326C0.239105 9.9009 0.182681 9.83718 0.143352 9.75904C0.104022 9.68089 0.0832915 9.59131 0.0834112 9.50002Z" fill="#595959"/>
</svg>
