<svg width="7" height="10" viewBox="0 0 7 10" fill="none" xmlns="http://www.w3.org/2000/svg">
<path d="M6.91659 9.50002L6.91659 0.500018C6.91635 0.408897 6.89541 0.31958 6.85601 0.24168C6.81662 0.16378 6.76027 0.100247 6.69303 0.0579205C6.62578 0.0155935 6.55019 -0.00392437 6.47439 0.00146675C6.39859 0.00685787 6.32545 0.0369549 6.26284 0.0885181L0.846172 4.58852C0.621589 4.77502 0.621589 5.22402 0.846172 5.41102L6.26284 9.91102C6.32531 9.96311 6.39849 9.99365 6.47442 9.99934C6.55035 10.005 6.62612 9.98563 6.69351 9.94326C6.7609 9.9009 6.81732 9.83718 6.85665 9.75904C6.89598 9.68089 6.91671 9.59131 6.91659 9.50002Z" fill="#595959"/>
</svg>
