<svg width="19" height="19" viewBox="0 0 19 19" fill="none" xmlns="http://www.w3.org/2000/svg">
<path d="M17.219 16.3792L12.735 11.8952C13.8125 10.6016 14.3498 8.94236 14.2352 7.26269C14.1205 5.58301 13.3627 4.01219 12.1194 2.87702C10.8761 1.74184 9.24299 1.12971 7.55984 1.16795C5.87668 1.20619 4.27307 1.89187 3.08259 3.08235C1.89212 4.27283 1.20644 5.87644 1.16819 7.55959C1.12995 9.24274 1.74209 10.8758 2.87726 12.1192C4.01244 13.3625 5.58325 14.1203 7.26293 14.2349C8.94261 14.3496 10.6018 13.8123 11.8954 12.7347L16.3794 17.2187L17.219 16.3792ZM2.37524 7.71874C2.37524 6.66185 2.68864 5.62869 3.27582 4.74991C3.863 3.87114 4.69758 3.18622 5.67402 2.78176C6.65046 2.37731 7.72491 2.27148 8.7615 2.47767C9.79809 2.68386 10.7503 3.1928 11.4976 3.94014C12.2449 4.68748 12.7539 5.63964 12.9601 6.67623C13.1662 7.71281 13.0604 8.78726 12.656 9.76371C12.2515 10.7401 11.5666 11.5747 10.6878 12.1619C9.80904 12.7491 8.77588 13.0625 7.71899 13.0625C6.30222 13.0609 4.94393 12.4974 3.94212 11.4956C2.94031 10.4938 2.37681 9.13551 2.37524 7.71874Z" fill="#A7A7A7"/>
</svg>
