<svg width="9" height="6" viewBox="0 0 9 6" fill="none" xmlns="http://www.w3.org/2000/svg">
<path d="M7.93613 0.994513L4.50001 4.64851L1.06388 0.994513C1.00249 0.929097 0.920075 0.892474 0.834257 0.892474C0.748438 0.892474 0.666024 0.929097 0.604632 0.994513C0.574906 1.02629 0.55129 1.06421 0.535168 1.10607C0.519046 1.14792 0.510742 1.19286 0.510742 1.23826C0.510742 1.28366 0.519046 1.32861 0.535168 1.37046C0.55129 1.41232 0.574906 1.45024 0.604632 1.48201L4.26007 5.37001C4.32426 5.43827 4.41036 5.47648 4.50001 5.47648C4.58965 5.47648 4.67575 5.43827 4.73994 5.37001L8.39538 1.48276C8.42532 1.45097 8.44911 1.41295 8.46536 1.37096C8.48161 1.32896 8.48997 1.28384 8.48997 1.23826C8.48997 1.19268 8.48161 1.14756 8.46536 1.10557C8.44911 1.06358 8.42532 1.02556 8.39538 0.993763C8.33399 0.928346 8.25158 0.891724 8.16576 0.891724C8.07994 0.891724 7.99752 0.928346 7.93613 0.993763V0.994513Z" fill="#212121"/>
</svg>
