<svg width="20" height="20" viewBox="0 0 20 20" fill="none" xmlns="http://www.w3.org/2000/svg">
<path d="M10.0009 5.94247C9.46802 5.94247 8.9404 6.04742 8.44812 6.25133C7.95584 6.45524 7.50855 6.75411 7.13177 7.13089C6.755 7.50766 6.45613 7.95496 6.25222 8.44724C6.04831 8.93951 5.94336 9.46714 5.94336 9.99997C5.94336 10.5328 6.04831 11.0604 6.25222 11.5527C6.45613 12.045 6.755 12.4923 7.13177 12.8691C7.50855 13.2458 7.95584 13.5447 8.44812 13.7486C8.9404 13.9525 9.46802 14.0575 10.0009 14.0575C11.077 14.0575 12.109 13.63 12.8699 12.8691C13.6309 12.1081 14.0584 11.0761 14.0584 9.99997C14.0584 8.92386 13.6309 7.89182 12.8699 7.13089C12.109 6.36996 11.077 5.94247 10.0009 5.94247ZM7.19336 9.99997C7.19336 9.25538 7.48915 8.54128 8.01566 8.01477C8.54217 7.48826 9.25626 7.19247 10.0009 7.19247C10.7455 7.19247 11.4596 7.48826 11.9861 8.01477C12.5126 8.54128 12.8084 9.25538 12.8084 9.99997C12.8084 10.7446 12.5126 11.4587 11.9861 11.9852C11.4596 12.5117 10.7455 12.8075 10.0009 12.8075C9.25626 12.8075 8.54217 12.5117 8.01566 11.9852C7.48915 11.4587 7.19336 10.7446 7.19336 9.99997Z" fill="#212121"/>
<path d="M12.2454 1.67861C11.5866 -0.558887 8.4141 -0.558887 7.75535 1.67861L7.63785 2.07736C7.59185 2.23355 7.51147 2.37747 7.40262 2.49856C7.29377 2.61965 7.1592 2.71485 7.00878 2.77718C6.85836 2.83951 6.69589 2.86738 6.5333 2.85876C6.3707 2.85014 6.21209 2.80525 6.0691 2.72736L5.7041 2.52736C3.6541 1.41236 1.41285 3.65486 2.5291 5.70361L2.72785 6.06861C2.80573 6.2116 2.85063 6.37021 2.85925 6.53281C2.86787 6.6954 2.83999 6.85787 2.77767 7.00829C2.71534 7.15871 2.62014 7.29328 2.49905 7.40213C2.37796 7.51099 2.23404 7.59136 2.07785 7.63736L1.6791 7.75486C-0.558398 8.41361 -0.558398 11.5861 1.6791 12.2449L2.07785 12.3624C2.23404 12.4084 2.37796 12.4887 2.49905 12.5976C2.62014 12.7064 2.71534 12.841 2.77767 12.9914C2.83999 13.1419 2.86787 13.3043 2.85925 13.4669C2.85063 13.6295 2.80573 13.7881 2.72785 13.9311L2.52785 14.2961C1.41285 16.3461 3.6541 18.5886 5.7041 17.4711L6.0691 17.2724C6.21209 17.1945 6.3707 17.1496 6.5333 17.141C6.69589 17.1323 6.85836 17.1602 7.00878 17.2225C7.1592 17.2849 7.29377 17.3801 7.40262 17.5012C7.51147 17.6223 7.59185 17.7662 7.63785 17.9224L7.75535 18.3211C8.4141 20.5586 11.5866 20.5586 12.2454 18.3211L12.3629 17.9224C12.4089 17.7662 12.4892 17.6223 12.5981 17.5012C12.7069 17.3801 12.8415 17.2849 12.9919 17.2225C13.1423 17.1602 13.3048 17.1323 13.4674 17.141C13.63 17.1496 13.7886 17.1945 13.9316 17.2724L14.2966 17.4724C16.3466 18.5886 18.5891 16.3449 17.4716 14.2961L17.2729 13.9311C17.195 13.7881 17.1501 13.6295 17.1415 13.4669C17.1328 13.3043 17.1607 13.1419 17.223 12.9914C17.2854 12.841 17.3806 12.7064 17.5017 12.5976C17.6227 12.4887 17.7667 12.4084 17.9229 12.3624L18.3216 12.2449C20.5591 11.5861 20.5591 8.41361 18.3216 7.75486L17.9229 7.63736C17.7667 7.59136 17.6227 7.51099 17.5017 7.40213C17.3806 7.29328 17.2854 7.15871 17.223 7.00829C17.1607 6.85787 17.1328 6.6954 17.1415 6.53281C17.1501 6.37021 17.195 6.2116 17.2729 6.06861L17.4729 5.70361C18.5891 3.65361 16.3454 1.41236 14.2966 2.52861L13.9316 2.72736C13.7886 2.80525 13.63 2.85014 13.4674 2.85876C13.3048 2.86738 13.1423 2.83951 12.9919 2.77718C12.8415 2.71485 12.7069 2.61965 12.5981 2.49856C12.4892 2.37747 12.4089 2.23355 12.3629 2.07736L12.2454 1.67861ZM8.9541 2.03236C9.2616 0.988613 10.7391 0.988613 11.0466 2.03236L11.1641 2.43111C11.2629 2.76622 11.4354 3.07497 11.669 3.33474C11.9026 3.5945 12.1914 3.79869 12.5142 3.93234C12.837 4.06598 13.1856 4.1257 13.5345 4.1071C13.8833 4.0885 14.2236 3.99207 14.5304 3.82486L14.8941 3.62486C15.8491 3.10611 16.8941 4.14986 16.3741 5.10611L16.1754 5.47111C16.0084 5.7779 15.9122 6.11815 15.8938 6.46693C15.8754 6.81572 15.9353 7.1642 16.069 7.48684C16.2028 7.80949 16.407 8.09812 16.6668 8.33158C16.9266 8.56505 17.2353 8.73744 17.5704 8.83611L17.9679 8.95361C19.0116 9.26111 19.0116 10.7386 17.9679 11.0461L17.5691 11.1636C17.234 11.2624 16.9252 11.4349 16.6655 11.6685C16.4057 11.9021 16.2015 12.1909 16.0679 12.5137C15.9342 12.8365 15.8745 13.1851 15.8931 13.534C15.9117 13.8828 16.0081 14.2231 16.1754 14.5299L16.3754 14.8936C16.8941 15.8486 15.8504 16.8936 14.8941 16.3736L14.5304 16.1749C14.2235 16.0077 13.8832 15.9113 13.5342 15.8928C13.1853 15.8743 12.8366 15.9341 12.5138 16.0678C12.191 16.2016 11.9023 16.406 11.6687 16.6659C11.4352 16.9258 11.2627 17.2346 11.1641 17.5699L11.0466 17.9674C10.7391 19.0111 9.2616 19.0111 8.9541 17.9674L8.8366 17.5686C8.73778 17.2337 8.56529 16.9251 8.33177 16.6655C8.09824 16.4058 7.80959 16.2017 7.48696 16.0681C7.16434 15.9345 6.8159 15.8747 6.46719 15.8932C6.11847 15.9116 5.7783 16.0079 5.4716 16.1749L5.1066 16.3749C4.1516 16.8936 3.1066 15.8499 3.6266 14.8936L3.82535 14.5299C3.99279 14.2231 4.08942 13.8827 4.10814 13.5337C4.12685 13.1846 4.06719 12.8359 3.93353 12.5129C3.79987 12.19 3.5956 11.901 3.3357 11.6673C3.0758 11.4336 2.76688 11.2611 2.4316 11.1624L2.03285 11.0449C0.989102 10.7374 0.989102 9.25986 2.03285 8.95236L2.4316 8.83486C2.76636 8.736 3.07478 8.56354 3.33428 8.3301C3.59378 8.09666 3.79781 7.80815 3.93142 7.48568C4.06503 7.16322 4.12485 6.81496 4.1065 6.46639C4.08815 6.11782 3.99209 5.77777 3.82535 5.47111L3.62535 5.10611C3.1066 4.15111 4.15035 3.10611 5.1066 3.62611L5.4716 3.82486C5.7783 3.99183 6.11847 4.08808 6.46719 4.10655C6.8159 4.12503 7.16434 4.06526 7.48696 3.93163C7.80959 3.79801 8.09824 3.5939 8.33177 3.33426C8.56529 3.07463 8.73778 2.76605 8.8366 2.43111L8.9541 2.03236Z" fill="#212121"/>
</svg>
